<svg xmlns="http://www.w3.org/2000/svg" width="380" height="80" viewBox="0 0 37.8166656494 8">

    <path
        d="
        M0 0 h1 v1 h-1
        M3 0 h2 v1 h-2
        M7 0 h1 v1 h-1
        M0 7 h1 v1 h-1
        M7 7 h1 v1 h-1
    z"
        fill="rgb(0, 0, 0)" shape-rendering="crispEdges" />

    <path
        d="
        M1 0 h2 v1 h-2
        M5 0 h2 v1 h-2
        M0 1 h1 v1 h-1
        M3 1 h2 v1 h-2
        M7 1 h1 v1 h-1
        M0 4 h1 v3 h-1
        M7 4 h1 v3 h-1
        M1 7 h1 v1 h-1
        M3 7 h2 v1 h-2
        M6 7 h1 v1 h-1
    z"
        fill="rgb(0, 0, 72)" shape-rendering="crispEdges" />

    <path
        d="
        M1 1 h2 v1 h-2
        M5 1 h2 v1 h-2
        M0 2 h1 v2 h-1
        M3 2 h2 v2 h-2
        M7 2 h1 v2 h-1
        M1 4 h2 v1 h-1 v2 h-1
        M7 4 h-2 v1 h1 v2 h1
        M3 6 h2 v1 h-2
        M2 7 h1 v1 h-1
        M5 7 h1 v1 h-1
    z"
        fill="rgb(0, 0, 193)" shape-rendering="crispEdges" />

    <path
        d="
        M1 2 h2 v2 h-2
        M5 2 h2 v2 h-2
        M3 4 h2 v2 h-2 M5 5 h1 v2 h-1 M2 5 h1 v2 h-1
    z"
        fill="rgb(0, 255, 255)" shape-rendering="crispEdges" />

    <svg xmlns="http://www.w3.org/2000/svg" x="9" y="1" width="28.8166656494" height="6" viewBox="0 11.25 172.89999389648438 36" data-asc="0.935">
        <g fill="#487cff">
            <g fill="#487cff" transform="translate(0, 0)">
                <path
                    d="M15.10 47.25Q10.10 47.25 6.80 45.83Q3.50 44.40 1.80 42.10Q0.10 39.80 0 37.20Q0 36.80 0.32 36.48Q0.65 36.15 1.10 36.15L7.40 36.15Q8.10 36.15 8.48 36.40Q8.85 36.65 9.15 37.05Q9.55 37.80 10.28 38.50Q11 39.20 12.20 39.63Q13.40 40.05 15.10 40.05Q18.00 40.05 19.48 39.15Q20.95 38.25 20.95 36.70Q20.95 35.55 20.15 34.85Q19.35 34.15 17.58 33.58Q15.80 33 12.85 32.40Q9.05 31.60 6.38 30.32Q3.70 29.05 2.30 26.97Q0.90 24.90 0.90 21.80Q0.90 18.75 2.63 16.35Q4.35 13.95 7.45 12.60Q10.55 11.25 14.80 11.25Q18.25 11.25 20.88 12.15Q23.50 13.05 25.30 14.55Q27.10 16.05 28.03 17.72Q28.95 19.40 29.00 21Q29.00 21.40 28.73 21.72Q28.45 22.05 27.95 22.05L21.35 22.05Q20.80 22.05 20.40 21.85Q20.00 21.65 19.70 21.20Q19.40 20.10 18.13 19.27Q16.85 18.45 14.80 18.45Q12.60 18.45 11.38 19.22Q10.15 20 10.15 21.60Q10.15 22.60 10.82 23.35Q11.50 24.10 13.07 24.65Q14.65 25.20 17.40 25.80Q21.95 26.65 24.75 27.93Q27.55 29.20 28.88 31.23Q30.20 33.25 30.20 36.30Q30.20 39.70 28.25 42.15Q26.30 44.60 22.93 45.92Q19.55 47.25 15.10 47.25ZM46.65 47.25Q40.75 47.25 37.25 44.05Q33.75 40.85 33.60 34.55Q33.60 34.20 33.60 33.65Q33.60 33.10 33.60 32.80Q33.75 28.85 35.38 26.02Q37 23.20 39.88 21.72Q42.75 20.25 46.60 20.25Q51 20.25 53.88 22Q56.75 23.75 58.20 26.75Q59.65 29.75 59.65 33.60L59.65 34.80Q59.65 35.35 59.30 35.70Q58.95 36.05 58.40 36.05L42.40 36.05Q42.40 36.10 42.40 36.20Q42.40 36.30 42.40 36.40Q42.45 37.85 42.92 39.05Q43.40 40.25 44.33 40.95Q45.25 41.65 46.60 41.65Q47.60 41.65 48.27 41.33Q48.95 41 49.40 40.58Q49.85 40.15 50.10 39.85Q50.55 39.30 50.83 39.17Q51.10 39.05 51.70 39.05L57.90 39.05Q58.40 39.05 58.73 39.35Q59.05 39.65 59 40.15Q58.95 41 58.15 42.20Q57.35 43.40 55.83 44.58Q54.30 45.75 52 46.50Q49.70 47.25 46.65 47.25M42.40 31.10L50.85 31.10L50.85 31Q50.85 29.35 50.38 28.18Q49.90 27 48.92 26.35Q47.95 25.70 46.60 25.70Q45.30 25.70 44.35 26.35Q43.40 27 42.90 28.18Q42.40 29.35 42.40 31L42.40 31.10ZM72.15 47.25Q69.45 47.25 67.33 46.23Q65.20 45.20 63.95 43.45Q62.70 41.70 62.70 39.50Q62.70 35.95 65.60 33.88Q68.50 31.80 73.30 31.05L79.55 30.10L79.55 29.40Q79.55 27.60 78.80 26.65Q78.05 25.70 76.05 25.70Q74.65 25.70 73.78 26.25Q72.90 26.80 72.40 27.75Q71.95 28.40 71.15 28.40L65.55 28.40Q65 28.40 64.70 28.07Q64.40 27.75 64.45 27.30Q64.45 26.40 65.13 25.22Q65.80 24.05 67.20 22.90Q68.60 21.75 70.80 21Q73 20.25 76.15 20.25Q79.35 20.25 81.65 21Q83.95 21.75 85.40 23.10Q86.85 24.45 87.53 26.27Q88.20 28.10 88.20 30.30L88.20 45.50Q88.20 46 87.83 46.38Q87.45 46.75 86.95 46.75L81.15 46.75Q80.60 46.75 80.25 46.38Q79.90 46 79.90 45.50L79.90 43.75Q79.25 44.70 78.15 45.50Q77.05 46.30 75.58 46.77Q74.10 47.25 72.15 47.25M74.50 41.55Q75.95 41.55 77.13 40.92Q78.30 40.30 78.98 38.98Q79.65 37.65 79.65 35.65L79.65 34.95L75.40 35.70Q73.05 36.10 71.98 36.92Q70.90 37.75 70.90 38.85Q70.90 39.70 71.40 40.30Q71.90 40.90 72.73 41.23Q73.55 41.55 74.50 41.55ZM95.10 46.75Q94.55 46.75 94.20 46.38Q93.85 46 93.85 45.50L93.85 22Q93.85 21.50 94.20 21.13Q94.55 20.75 95.10 20.75L100.85 20.75Q101.40 20.75 101.78 21.13Q102.15 21.50 102.15 22L102.15 24Q103.45 22.45 105.33 21.60Q107.20 20.75 109.55 20.75L111.75 20.75Q112.30 20.75 112.65 21.10Q113 21.45 113 22L113 27.15Q113 27.65 112.65 28.02Q112.30 28.40 111.75 28.40L106.90 28.40Q104.85 28.40 103.73 29.52Q102.60 30.65 102.60 32.70L102.60 45.50Q102.60 46 102.23 46.38Q101.85 46.75 101.30 46.75L95.10 46.75ZM128.50 47.25Q124.80 47.25 121.95 45.90Q119.10 44.55 117.43 41.98Q115.75 39.40 115.60 35.80Q115.55 35 115.55 33.77Q115.55 32.55 115.60 31.75Q115.75 28.10 117.40 25.52Q119.05 22.95 121.93 21.60Q124.80 20.25 128.50 20.25Q131.95 20.25 134.43 21.22Q136.90 22.20 138.43 23.65Q139.95 25.10 140.73 26.63Q141.50 28.15 141.55 29.30Q141.60 29.80 141.20 30.18Q140.80 30.55 140.30 30.55L133.95 30.55Q133.40 30.55 133.10 30.30Q132.80 30.05 132.55 29.55Q131.95 28 131.03 27.35Q130.10 26.70 128.65 26.70Q126.65 26.70 125.58 28Q124.50 29.30 124.40 32Q124.35 34 124.40 35.55Q124.55 38.30 125.60 39.55Q126.65 40.80 128.65 40.80Q130.20 40.80 131.10 40.13Q132 39.45 132.55 37.95Q132.80 37.45 133.10 37.20Q133.40 36.95 133.95 36.95L140.30 36.95Q140.80 36.95 141.20 37.30Q141.60 37.65 141.55 38.20Q141.50 39 141.05 40.15Q140.60 41.30 139.65 42.55Q138.70 43.80 137.18 44.85Q135.65 45.90 133.50 46.58Q131.35 47.25 128.50 47.25ZM147.30 46.75Q146.75 46.75 146.40 46.38Q146.05 46 146.05 45.50L146.05 12.50Q146.05 11.95 146.40 11.60Q146.75 11.25 147.30 11.25L153.70 11.25Q154.25 11.25 154.60 11.60Q154.95 11.95 154.95 12.50L154.95 23.65Q156.30 22.10 158.28 21.17Q160.25 20.25 162.85 20.25Q165.75 20.25 168.03 21.55Q170.30 22.85 171.60 25.35Q172.90 27.85 172.90 31.55L172.90 45.50Q172.90 46 172.55 46.38Q172.20 46.75 171.65 46.75L165.20 46.75Q164.70 46.75 164.33 46.38Q163.95 46 163.95 45.50L163.95 31.85Q163.95 29.50 162.83 28.22Q161.70 26.95 159.55 26.95Q157.45 26.95 156.20 28.22Q154.95 29.50 154.95 31.85L154.95 45.50Q154.95 46 154.60 46.38Q154.25 46.75 153.70 46.75L147.30 46.75Z" />
            </g>
        </g>
    </svg>

</svg>